ISO-10303-21;
HEADER;
/* Generated by software containing ST-Developer
 * from STEP Tools, Inc. (www.steptools.com) 
 */

FILE_DESCRIPTION(
/* description */ (''),
/* implementation_level */ '2;1');

FILE_NAME(
/* name */ '2nd.step',
/* time_stamp */ '2026-07-29T17:50:57+05:30',
/* author */ (''),
/* organization */ (''),
/* preprocessor_version */ 'ST-DEVELOPER v20.1',
/* originating_system */ 'Autodesk Translation Framework v15.8.0.0',
/* authorisation */ '');

FILE_SCHEMA (('AUTOMOTIVE_DESIGN { 1 0 10303 214 3 1 1 }'));
ENDSEC;

DATA;
#10=MECHANICAL_DESIGN_GEOMETRIC_PRESENTATION_REPRESENTATION('',(#13),#698);
#11=SHAPE_REPRESENTATION_RELATIONSHIP('SRR','None',#705,#12);
#12=ADVANCED_BREP_SHAPE_REPRESENTATION('',(#14),#697);
#13=STYLED_ITEM('',(#714),#14);
#14=MANIFOLD_SOLID_BREP('Body1',#405);
#15=FACE_BOUND('',#65,.T.);
#16=FACE_BOUND('',#66,.T.);
#17=FACE_BOUND('',#67,.T.);
#18=FACE_BOUND('',#68,.T.);
#19=FACE_BOUND('',#76,.T.);
#20=FACE_BOUND('',#85,.T.);
#21=FACE_BOUND('',#86,.T.);
#22=FACE_BOUND('',#87,.T.);
#23=FACE_BOUND('',#88,.T.);
#24=PLANE('',#428);
#25=PLANE('',#432);
#26=PLANE('',#433);
#27=PLANE('',#446);
#28=PLANE('',#447);
#29=PLANE('',#448);
#30=PLANE('',#449);
#31=PLANE('',#458);
#32=PLANE('',#459);
#33=PLANE('',#460);
#34=PLANE('',#461);
#35=TOROIDAL_SURFACE('',#422,22.,3.);
#36=FACE_OUTER_BOUND('',#58,.T.);
#37=FACE_OUTER_BOUND('',#59,.T.);
#38=FACE_OUTER_BOUND('',#60,.T.);
#39=FACE_OUTER_BOUND('',#61,.T.);
#40=FACE_OUTER_BOUND('',#62,.T.);
#41=FACE_OUTER_BOUND('',#63,.T.);
#42=FACE_OUTER_BOUND('',#64,.T.);
#43=FACE_OUTER_BOUND('',#69,.T.);
#44=FACE_OUTER_BOUND('',#70,.T.);
#45=FACE_OUTER_BOUND('',#71,.T.);
#46=FACE_OUTER_BOUND('',#72,.T.);
#47=FACE_OUTER_BOUND('',#73,.T.);
#48=FACE_OUTER_BOUND('',#74,.T.);
#49=FACE_OUTER_BOUND('',#75,.T.);
#50=FACE_OUTER_BOUND('',#77,.T.);
#51=FACE_OUTER_BOUND('',#78,.T.);
#52=FACE_OUTER_BOUND('',#79,.T.);
#53=FACE_OUTER_BOUND('',#80,.T.);
#54=FACE_OUTER_BOUND('',#81,.T.);
#55=FACE_OUTER_BOUND('',#82,.T.);
#56=FACE_OUTER_BOUND('',#83,.T.);
#57=FACE_OUTER_BOUND('',#84,.T.);
#58=EDGE_LOOP('',(#265,#266,#267,#268));
#59=EDGE_LOOP('',(#269,#270,#271,#272));
#60=EDGE_LOOP('',(#273,#274,#275,#276));
#61=EDGE_LOOP('',(#277,#278,#279,#280));
#62=EDGE_LOOP('',(#281,#282,#283,#284));
#63=EDGE_LOOP('',(#285,#286,#287,#288));
#64=EDGE_LOOP('',(#289,#290,#291,#292,#293,#294,#295,#296,#297,#298,#299,
#300));
#65=EDGE_LOOP('',(#301));
#66=EDGE_LOOP('',(#302));
#67=EDGE_LOOP('',(#303));
#68=EDGE_LOOP('',(#304));
#69=EDGE_LOOP('',(#305,#306,#307,#308));
#70=EDGE_LOOP('',(#309,#310,#311,#312));
#71=EDGE_LOOP('',(#313,#314,#315,#316));
#72=EDGE_LOOP('',(#317));
#73=EDGE_LOOP('',(#318,#319,#320,#321));
#74=EDGE_LOOP('',(#322,#323,#324,#325,#326));
#75=EDGE_LOOP('',(#327,#328,#329,#330,#331,#332));
#76=EDGE_LOOP('',(#333));
#77=EDGE_LOOP('',(#334,#335,#336,#337));
#78=EDGE_LOOP('',(#338,#339,#340,#341));
#79=EDGE_LOOP('',(#342,#343,#344,#345));
#80=EDGE_LOOP('',(#346,#347,#348,#349));
#81=EDGE_LOOP('',(#350,#351,#352,#353));
#82=EDGE_LOOP('',(#354,#355,#356,#357));
#83=EDGE_LOOP('',(#358,#359,#360,#361));
#84=EDGE_LOOP('',(#362,#363,#364,#365,#366,#367,#368));
#85=EDGE_LOOP('',(#369));
#86=EDGE_LOOP('',(#370));
#87=EDGE_LOOP('',(#371));
#88=EDGE_LOOP('',(#372));
#89=LINE('',#589,#122);
#90=LINE('',#592,#123);
#91=LINE('',#603,#124);
#92=LINE('',#604,#125);
#93=LINE('',#606,#126);
#94=LINE('',#612,#127);
#95=LINE('',#615,#128);
#96=LINE('',#618,#129);
#97=LINE('',#620,#130);
#98=LINE('',#621,#131);
#99=LINE('',#624,#132);
#100=LINE('',#626,#133);
#101=LINE('',#628,#134);
#102=LINE('',#631,#135);
#103=LINE('',#633,#136);
#104=LINE('',#634,#137);
#105=LINE('',#646,#138);
#106=LINE('',#649,#139);
#107=LINE('',#652,#140);
#108=LINE('',#657,#141);
#109=LINE('',#661,#142);
#110=LINE('',#664,#143);
#111=LINE('',#665,#144);
#112=LINE('',#668,#145);
#113=LINE('',#669,#146);
#114=LINE('',#673,#147);
#115=LINE('',#677,#148);
#116=LINE('',#681,#149);
#117=LINE('',#685,#150);
#118=LINE('',#687,#151);
#119=LINE('',#690,#152);
#120=LINE('',#691,#153);
#121=LINE('',#693,#154);
#122=VECTOR('',#468,10.);
#123=VECTOR('',#471,10.);
#124=VECTOR('',#484,10.);
#125=VECTOR('',#485,10.);
#126=VECTOR('',#488,10.);
#127=VECTOR('',#493,10.);
#128=VECTOR('',#496,10.);
#129=VECTOR('',#499,10.);
#130=VECTOR('',#500,10.);
#131=VECTOR('',#501,10.);
#132=VECTOR('',#504,10.);
#133=VECTOR('',#505,10.);
#134=VECTOR('',#506,10.);
#135=VECTOR('',#509,10.);
#136=VECTOR('',#510,10.);
#137=VECTOR('',#511,10.);
#138=VECTOR('',#524,10.);
#139=VECTOR('',#527,10.);
#140=VECTOR('',#530,10.);
#141=VECTOR('',#535,15.);
#142=VECTOR('',#542,10.);
#143=VECTOR('',#545,10.);
#144=VECTOR('',#546,10.);
#145=VECTOR('',#549,10.);
#146=VECTOR('',#550,10.);
#147=VECTOR('',#555,5.);
#148=VECTOR('',#560,5.);
#149=VECTOR('',#565,5.);
#150=VECTOR('',#570,5.);
#151=VECTOR('',#573,10.);
#152=VECTOR('',#576,10.);
#153=VECTOR('',#577,10.);
#154=VECTOR('',#580,10.);
#155=CIRCLE('',#420,3.);
#156=CIRCLE('',#421,3.00000000000001);
#157=CIRCLE('',#423,3.00000000000001);
#158=CIRCLE('',#424,22.);
#159=CIRCLE('',#425,25.);
#160=CIRCLE('',#427,3.);
#161=CIRCLE('',#430,3.);
#162=CIRCLE('',#431,3.);
#163=CIRCLE('',#434,3.);
#164=CIRCLE('',#435,5.);
#165=CIRCLE('',#436,5.);
#166=CIRCLE('',#437,5.);
#167=CIRCLE('',#438,5.);
#168=CIRCLE('',#440,3.);
#169=CIRCLE('',#442,25.);
#170=CIRCLE('',#444,15.);
#171=CIRCLE('',#445,15.);
#172=CIRCLE('',#451,5.);
#173=CIRCLE('',#453,5.);
#174=CIRCLE('',#455,5.);
#175=CIRCLE('',#457,5.);
#176=VERTEX_POINT('',#585);
#177=VERTEX_POINT('',#586);
#178=VERTEX_POINT('',#588);
#179=VERTEX_POINT('',#590);
#180=VERTEX_POINT('',#594);
#181=VERTEX_POINT('',#595);
#182=VERTEX_POINT('',#600);
#183=VERTEX_POINT('',#601);
#184=VERTEX_POINT('',#608);
#185=VERTEX_POINT('',#609);
#186=VERTEX_POINT('',#611);
#187=VERTEX_POINT('',#613);
#188=VERTEX_POINT('',#617);
#189=VERTEX_POINT('',#619);
#190=VERTEX_POINT('',#623);
#191=VERTEX_POINT('',#625);
#192=VERTEX_POINT('',#627);
#193=VERTEX_POINT('',#630);
#194=VERTEX_POINT('',#632);
#195=VERTEX_POINT('',#635);
#196=VERTEX_POINT('',#637);
#197=VERTEX_POINT('',#639);
#198=VERTEX_POINT('',#641);
#199=VERTEX_POINT('',#644);
#200=VERTEX_POINT('',#648);
#201=VERTEX_POINT('',#650);
#202=VERTEX_POINT('',#654);
#203=VERTEX_POINT('',#656);
#204=VERTEX_POINT('',#663);
#205=VERTEX_POINT('',#667);
#206=VERTEX_POINT('',#671);
#207=VERTEX_POINT('',#675);
#208=VERTEX_POINT('',#679);
#209=VERTEX_POINT('',#683);
#210=VERTEX_POINT('',#689);
#211=EDGE_CURVE('',#176,#177,#155,.T.);
#212=EDGE_CURVE('',#177,#178,#89,.T.);
#213=EDGE_CURVE('',#178,#179,#156,.T.);
#214=EDGE_CURVE('',#179,#176,#90,.T.);
#215=EDGE_CURVE('',#180,#181,#157,.T.);
#216=EDGE_CURVE('',#181,#179,#158,.T.);
#217=EDGE_CURVE('',#178,#180,#159,.T.);
#218=EDGE_CURVE('',#182,#183,#160,.T.);
#219=EDGE_CURVE('',#183,#181,#91,.T.);
#220=EDGE_CURVE('',#180,#182,#92,.T.);
#221=EDGE_CURVE('',#183,#176,#93,.T.);
#222=EDGE_CURVE('',#184,#185,#161,.T.);
#223=EDGE_CURVE('',#185,#186,#94,.T.);
#224=EDGE_CURVE('',#186,#187,#162,.T.);
#225=EDGE_CURVE('',#187,#184,#95,.T.);
#226=EDGE_CURVE('',#188,#187,#96,.T.);
#227=EDGE_CURVE('',#189,#188,#97,.T.);
#228=EDGE_CURVE('',#184,#189,#98,.T.);
#229=EDGE_CURVE('',#190,#182,#99,.T.);
#230=EDGE_CURVE('',#190,#191,#100,.T.);
#231=EDGE_CURVE('',#191,#192,#101,.T.);
#232=EDGE_CURVE('',#188,#192,#163,.T.);
#233=EDGE_CURVE('',#186,#193,#102,.T.);
#234=EDGE_CURVE('',#194,#193,#103,.T.);
#235=EDGE_CURVE('',#177,#194,#104,.T.);
#236=EDGE_CURVE('',#195,#195,#164,.T.);
#237=EDGE_CURVE('',#196,#196,#165,.T.);
#238=EDGE_CURVE('',#197,#197,#166,.T.);
#239=EDGE_CURVE('',#198,#198,#167,.T.);
#240=EDGE_CURVE('',#199,#189,#168,.T.);
#241=EDGE_CURVE('',#192,#199,#105,.T.);
#242=EDGE_CURVE('',#178,#200,#106,.T.);
#243=EDGE_CURVE('',#200,#201,#169,.T.);
#244=EDGE_CURVE('',#201,#180,#107,.T.);
#245=EDGE_CURVE('',#202,#202,#170,.T.);
#246=EDGE_CURVE('',#202,#203,#108,.T.);
#247=EDGE_CURVE('',#203,#203,#171,.T.);
#248=EDGE_CURVE('',#194,#200,#109,.T.);
#249=EDGE_CURVE('',#204,#201,#110,.T.);
#250=EDGE_CURVE('',#190,#204,#111,.T.);
#251=EDGE_CURVE('',#193,#205,#112,.T.);
#252=EDGE_CURVE('',#204,#205,#113,.T.);
#253=EDGE_CURVE('',#206,#206,#172,.T.);
#254=EDGE_CURVE('',#206,#198,#114,.T.);
#255=EDGE_CURVE('',#207,#207,#173,.T.);
#256=EDGE_CURVE('',#207,#197,#115,.T.);
#257=EDGE_CURVE('',#208,#208,#174,.T.);
#258=EDGE_CURVE('',#208,#196,#116,.T.);
#259=EDGE_CURVE('',#209,#209,#175,.T.);
#260=EDGE_CURVE('',#209,#195,#117,.T.);
#261=EDGE_CURVE('',#205,#185,#118,.T.);
#262=EDGE_CURVE('',#210,#204,#119,.T.);
#263=EDGE_CURVE('',#191,#210,#120,.T.);
#264=EDGE_CURVE('',#199,#210,#121,.T.);
#265=ORIENTED_EDGE('',*,*,#211,.T.);
#266=ORIENTED_EDGE('',*,*,#212,.T.);
#267=ORIENTED_EDGE('',*,*,#213,.T.);
#268=ORIENTED_EDGE('',*,*,#214,.T.);
#269=ORIENTED_EDGE('',*,*,#215,.T.);
#270=ORIENTED_EDGE('',*,*,#216,.T.);
#271=ORIENTED_EDGE('',*,*,#213,.F.);
#272=ORIENTED_EDGE('',*,*,#217,.T.);
#273=ORIENTED_EDGE('',*,*,#218,.T.);
#274=ORIENTED_EDGE('',*,*,#219,.T.);
#275=ORIENTED_EDGE('',*,*,#215,.F.);
#276=ORIENTED_EDGE('',*,*,#220,.T.);
#277=ORIENTED_EDGE('',*,*,#214,.F.);
#278=ORIENTED_EDGE('',*,*,#216,.F.);
#279=ORIENTED_EDGE('',*,*,#219,.F.);
#280=ORIENTED_EDGE('',*,*,#221,.T.);
#281=ORIENTED_EDGE('',*,*,#222,.T.);
#282=ORIENTED_EDGE('',*,*,#223,.T.);
#283=ORIENTED_EDGE('',*,*,#224,.T.);
#284=ORIENTED_EDGE('',*,*,#225,.T.);
#285=ORIENTED_EDGE('',*,*,#225,.F.);
#286=ORIENTED_EDGE('',*,*,#226,.F.);
#287=ORIENTED_EDGE('',*,*,#227,.F.);
#288=ORIENTED_EDGE('',*,*,#228,.F.);
#289=ORIENTED_EDGE('',*,*,#211,.F.);
#290=ORIENTED_EDGE('',*,*,#221,.F.);
#291=ORIENTED_EDGE('',*,*,#218,.F.);
#292=ORIENTED_EDGE('',*,*,#229,.F.);
#293=ORIENTED_EDGE('',*,*,#230,.T.);
#294=ORIENTED_EDGE('',*,*,#231,.T.);
#295=ORIENTED_EDGE('',*,*,#232,.F.);
#296=ORIENTED_EDGE('',*,*,#226,.T.);
#297=ORIENTED_EDGE('',*,*,#224,.F.);
#298=ORIENTED_EDGE('',*,*,#233,.T.);
#299=ORIENTED_EDGE('',*,*,#234,.F.);
#300=ORIENTED_EDGE('',*,*,#235,.F.);
#301=ORIENTED_EDGE('',*,*,#236,.F.);
#302=ORIENTED_EDGE('',*,*,#237,.F.);
#303=ORIENTED_EDGE('',*,*,#238,.F.);
#304=ORIENTED_EDGE('',*,*,#239,.F.);
#305=ORIENTED_EDGE('',*,*,#240,.T.);
#306=ORIENTED_EDGE('',*,*,#227,.T.);
#307=ORIENTED_EDGE('',*,*,#232,.T.);
#308=ORIENTED_EDGE('',*,*,#241,.T.);
#309=ORIENTED_EDGE('',*,*,#217,.F.);
#310=ORIENTED_EDGE('',*,*,#242,.T.);
#311=ORIENTED_EDGE('',*,*,#243,.T.);
#312=ORIENTED_EDGE('',*,*,#244,.T.);
#313=ORIENTED_EDGE('',*,*,#245,.F.);
#314=ORIENTED_EDGE('',*,*,#246,.T.);
#315=ORIENTED_EDGE('',*,*,#247,.F.);
#316=ORIENTED_EDGE('',*,*,#246,.F.);
#317=ORIENTED_EDGE('',*,*,#245,.T.);
#318=ORIENTED_EDGE('',*,*,#212,.F.);
#319=ORIENTED_EDGE('',*,*,#235,.T.);
#320=ORIENTED_EDGE('',*,*,#248,.T.);
#321=ORIENTED_EDGE('',*,*,#242,.F.);
#322=ORIENTED_EDGE('',*,*,#220,.F.);
#323=ORIENTED_EDGE('',*,*,#244,.F.);
#324=ORIENTED_EDGE('',*,*,#249,.F.);
#325=ORIENTED_EDGE('',*,*,#250,.F.);
#326=ORIENTED_EDGE('',*,*,#229,.T.);
#327=ORIENTED_EDGE('',*,*,#243,.F.);
#328=ORIENTED_EDGE('',*,*,#248,.F.);
#329=ORIENTED_EDGE('',*,*,#234,.T.);
#330=ORIENTED_EDGE('',*,*,#251,.T.);
#331=ORIENTED_EDGE('',*,*,#252,.F.);
#332=ORIENTED_EDGE('',*,*,#249,.T.);
#333=ORIENTED_EDGE('',*,*,#247,.T.);
#334=ORIENTED_EDGE('',*,*,#253,.F.);
#335=ORIENTED_EDGE('',*,*,#254,.T.);
#336=ORIENTED_EDGE('',*,*,#239,.T.);
#337=ORIENTED_EDGE('',*,*,#254,.F.);
#338=ORIENTED_EDGE('',*,*,#255,.F.);
#339=ORIENTED_EDGE('',*,*,#256,.T.);
#340=ORIENTED_EDGE('',*,*,#238,.T.);
#341=ORIENTED_EDGE('',*,*,#256,.F.);
#342=ORIENTED_EDGE('',*,*,#257,.F.);
#343=ORIENTED_EDGE('',*,*,#258,.T.);
#344=ORIENTED_EDGE('',*,*,#237,.T.);
#345=ORIENTED_EDGE('',*,*,#258,.F.);
#346=ORIENTED_EDGE('',*,*,#259,.F.);
#347=ORIENTED_EDGE('',*,*,#260,.T.);
#348=ORIENTED_EDGE('',*,*,#236,.T.);
#349=ORIENTED_EDGE('',*,*,#260,.F.);
#350=ORIENTED_EDGE('',*,*,#223,.F.);
#351=ORIENTED_EDGE('',*,*,#261,.F.);
#352=ORIENTED_EDGE('',*,*,#251,.F.);
#353=ORIENTED_EDGE('',*,*,#233,.F.);
#354=ORIENTED_EDGE('',*,*,#250,.T.);
#355=ORIENTED_EDGE('',*,*,#262,.F.);
#356=ORIENTED_EDGE('',*,*,#263,.F.);
#357=ORIENTED_EDGE('',*,*,#230,.F.);
#358=ORIENTED_EDGE('',*,*,#241,.F.);
#359=ORIENTED_EDGE('',*,*,#231,.F.);
#360=ORIENTED_EDGE('',*,*,#263,.T.);
#361=ORIENTED_EDGE('',*,*,#264,.F.);
#362=ORIENTED_EDGE('',*,*,#222,.F.);
#363=ORIENTED_EDGE('',*,*,#228,.T.);
#364=ORIENTED_EDGE('',*,*,#240,.F.);
#365=ORIENTED_EDGE('',*,*,#264,.T.);
#366=ORIENTED_EDGE('',*,*,#262,.T.);
#367=ORIENTED_EDGE('',*,*,#252,.T.);
#368=ORIENTED_EDGE('',*,*,#261,.T.);
#369=ORIENTED_EDGE('',*,*,#259,.T.);
#370=ORIENTED_EDGE('',*,*,#257,.T.);
#371=ORIENTED_EDGE('',*,*,#255,.T.);
#372=ORIENTED_EDGE('',*,*,#253,.T.);
#373=CYLINDRICAL_SURFACE('',#419,3.);
#374=CYLINDRICAL_SURFACE('',#426,3.);
#375=CYLINDRICAL_SURFACE('',#429,3.);
#376=CYLINDRICAL_SURFACE('',#439,3.);
#377=CYLINDRICAL_SURFACE('',#441,25.);
#378=CYLINDRICAL_SURFACE('',#443,15.);
#379=CYLINDRICAL_SURFACE('',#450,5.);
#380=CYLINDRICAL_SURFACE('',#452,5.);
#381=CYLINDRICAL_SURFACE('',#454,5.);
#382=CYLINDRICAL_SURFACE('',#456,5.);
#383=ADVANCED_FACE('',(#36),#373,.T.);
#384=ADVANCED_FACE('',(#37),#35,.T.);
#385=ADVANCED_FACE('',(#38),#374,.T.);
#386=ADVANCED_FACE('',(#39),#24,.T.);
#387=ADVANCED_FACE('',(#40),#375,.T.);
#388=ADVANCED_FACE('',(#41),#25,.T.);
#389=ADVANCED_FACE('',(#42,#15,#16,#17,#18),#26,.F.);
#390=ADVANCED_FACE('',(#43),#376,.T.);
#391=ADVANCED_FACE('',(#44),#377,.T.);
#392=ADVANCED_FACE('',(#45),#378,.T.);
#393=ADVANCED_FACE('',(#46),#27,.T.);
#394=ADVANCED_FACE('',(#47),#28,.T.);
#395=ADVANCED_FACE('',(#48),#29,.T.);
#396=ADVANCED_FACE('',(#49,#19),#30,.T.);
#397=ADVANCED_FACE('',(#50),#379,.F.);
#398=ADVANCED_FACE('',(#51),#380,.F.);
#399=ADVANCED_FACE('',(#52),#381,.F.);
#400=ADVANCED_FACE('',(#53),#382,.F.);
#401=ADVANCED_FACE('',(#54),#31,.T.);
#402=ADVANCED_FACE('',(#55),#32,.T.);
#403=ADVANCED_FACE('',(#56),#33,.T.);
#404=ADVANCED_FACE('',(#57,#20,#21,#22,#23),#34,.T.);
#405=CLOSED_SHELL('',(#383,#384,#385,#386,#387,#388,#389,#390,#391,#392,
#393,#394,#395,#396,#397,#398,#399,#400,#401,#402,#403,#404));
#406=DERIVED_UNIT_ELEMENT(#408,1.);
#407=DERIVED_UNIT_ELEMENT(#700,-3.);
#408=(
MASS_UNIT()
NAMED_UNIT(*)
SI_UNIT(.KILO.,.GRAM.)
);
#409=DERIVED_UNIT((#406,#407));
#410=MEASURE_REPRESENTATION_ITEM('density measure',
POSITIVE_RATIO_MEASURE(7850.),#409);
#411=PROPERTY_DEFINITION_REPRESENTATION(#416,#413);
#412=PROPERTY_DEFINITION_REPRESENTATION(#417,#414);
#413=REPRESENTATION('material name',(#415),#697);
#414=REPRESENTATION('density',(#410),#697);
#415=DESCRIPTIVE_REPRESENTATION_ITEM('Steel','Steel');
#416=PROPERTY_DEFINITION('material property','material name',#707);
#417=PROPERTY_DEFINITION('material property','density of part',#707);
#418=AXIS2_PLACEMENT_3D('',#583,#462,#463);
#419=AXIS2_PLACEMENT_3D('',#584,#464,#465);
#420=AXIS2_PLACEMENT_3D('',#587,#466,#467);
#421=AXIS2_PLACEMENT_3D('',#591,#469,#470);
#422=AXIS2_PLACEMENT_3D('',#593,#472,#473);
#423=AXIS2_PLACEMENT_3D('',#596,#474,#475);
#424=AXIS2_PLACEMENT_3D('',#597,#476,#477);
#425=AXIS2_PLACEMENT_3D('',#598,#478,#479);
#426=AXIS2_PLACEMENT_3D('',#599,#480,#481);
#427=AXIS2_PLACEMENT_3D('',#602,#482,#483);
#428=AXIS2_PLACEMENT_3D('',#605,#486,#487);
#429=AXIS2_PLACEMENT_3D('',#607,#489,#490);
#430=AXIS2_PLACEMENT_3D('',#610,#491,#492);
#431=AXIS2_PLACEMENT_3D('',#614,#494,#495);
#432=AXIS2_PLACEMENT_3D('',#616,#497,#498);
#433=AXIS2_PLACEMENT_3D('',#622,#502,#503);
#434=AXIS2_PLACEMENT_3D('',#629,#507,#508);
#435=AXIS2_PLACEMENT_3D('',#636,#512,#513);
#436=AXIS2_PLACEMENT_3D('',#638,#514,#515);
#437=AXIS2_PLACEMENT_3D('',#640,#516,#517);
#438=AXIS2_PLACEMENT_3D('',#642,#518,#519);
#439=AXIS2_PLACEMENT_3D('',#643,#520,#521);
#440=AXIS2_PLACEMENT_3D('',#645,#522,#523);
#441=AXIS2_PLACEMENT_3D('',#647,#525,#526);
#442=AXIS2_PLACEMENT_3D('',#651,#528,#529);
#443=AXIS2_PLACEMENT_3D('',#653,#531,#532);
#444=AXIS2_PLACEMENT_3D('',#655,#533,#534);
#445=AXIS2_PLACEMENT_3D('',#658,#536,#537);
#446=AXIS2_PLACEMENT_3D('',#659,#538,#539);
#447=AXIS2_PLACEMENT_3D('',#660,#540,#541);
#448=AXIS2_PLACEMENT_3D('',#662,#543,#544);
#449=AXIS2_PLACEMENT_3D('',#666,#547,#548);
#450=AXIS2_PLACEMENT_3D('',#670,#551,#552);
#451=AXIS2_PLACEMENT_3D('',#672,#553,#554);
#452=AXIS2_PLACEMENT_3D('',#674,#556,#557);
#453=AXIS2_PLACEMENT_3D('',#676,#558,#559);
#454=AXIS2_PLACEMENT_3D('',#678,#561,#562);
#455=AXIS2_PLACEMENT_3D('',#680,#563,#564);
#456=AXIS2_PLACEMENT_3D('',#682,#566,#567);
#457=AXIS2_PLACEMENT_3D('',#684,#568,#569);
#458=AXIS2_PLACEMENT_3D('',#686,#571,#572);
#459=AXIS2_PLACEMENT_3D('',#688,#574,#575);
#460=AXIS2_PLACEMENT_3D('',#692,#578,#579);
#461=AXIS2_PLACEMENT_3D('',#694,#581,#582);
#462=DIRECTION('axis',(0.,0.,1.));
#463=DIRECTION('refdir',(1.,0.,0.));
#464=DIRECTION('center_axis',(0.,0.,1.));
#465=DIRECTION('ref_axis',(-0.707106781186543,-0.707106781186552,0.));
#466=DIRECTION('center_axis',(0.,0.,1.));
#467=DIRECTION('ref_axis',(-0.707106781186543,-0.707106781186552,0.));
#468=DIRECTION('',(0.,0.,1.));
#469=DIRECTION('center_axis',(0.,0.,-1.));
#470=DIRECTION('ref_axis',(0.,-1.,0.));
#471=DIRECTION('',(0.,0.,-1.));
#472=DIRECTION('center_axis',(1.,0.,0.));
#473=DIRECTION('ref_axis',(0.,0.,1.));
#474=DIRECTION('center_axis',(0.,0.,1.));
#475=DIRECTION('ref_axis',(0.,1.,0.));
#476=DIRECTION('center_axis',(1.,0.,0.));
#477=DIRECTION('ref_axis',(0.,0.,1.));
#478=DIRECTION('center_axis',(-1.,0.,0.));
#479=DIRECTION('ref_axis',(0.,0.,1.));
#480=DIRECTION('center_axis',(0.,0.,1.));
#481=DIRECTION('ref_axis',(-0.707106781186552,0.707106781186543,0.));
#482=DIRECTION('center_axis',(0.,0.,1.));
#483=DIRECTION('ref_axis',(-0.707106781186552,0.707106781186543,0.));
#484=DIRECTION('',(0.,0.,1.));
#485=DIRECTION('',(0.,0.,-1.));
#486=DIRECTION('center_axis',(-1.,0.,0.));
#487=DIRECTION('ref_axis',(0.,-1.,0.));
#488=DIRECTION('',(0.,-1.,0.));
#489=DIRECTION('center_axis',(0.,0.,1.));
#490=DIRECTION('ref_axis',(0.707106781186543,-0.707106781186552,0.));
#491=DIRECTION('center_axis',(0.,0.,-1.));
#492=DIRECTION('ref_axis',(0.707106781186543,-0.707106781186552,0.));
#493=DIRECTION('',(0.,0.,-1.));
#494=DIRECTION('center_axis',(0.,0.,1.));
#495=DIRECTION('ref_axis',(0.707106781186543,-0.707106781186552,0.));
#496=DIRECTION('',(0.,0.,1.));
#497=DIRECTION('center_axis',(1.,0.,0.));
#498=DIRECTION('ref_axis',(0.,1.,0.));
#499=DIRECTION('',(0.,-1.,0.));
#500=DIRECTION('',(0.,0.,-1.));
#501=DIRECTION('',(0.,1.,0.));
#502=DIRECTION('center_axis',(0.,0.,1.));
#503=DIRECTION('ref_axis',(1.,0.,0.));
#504=DIRECTION('',(-1.,0.,0.));
#505=DIRECTION('',(0.,1.,0.));
#506=DIRECTION('',(1.,0.,0.));
#507=DIRECTION('center_axis',(0.,0.,1.));
#508=DIRECTION('ref_axis',(0.707106781186543,0.707106781186552,0.));
#509=DIRECTION('',(-1.,0.,0.));
#510=DIRECTION('',(0.,1.,0.));
#511=DIRECTION('',(1.,0.,0.));
#512=DIRECTION('center_axis',(0.,0.,-1.));
#513=DIRECTION('ref_axis',(1.,0.,0.));
#514=DIRECTION('center_axis',(0.,0.,-1.));
#515=DIRECTION('ref_axis',(1.,0.,0.));
#516=DIRECTION('center_axis',(0.,0.,-1.));
#517=DIRECTION('ref_axis',(1.,0.,0.));
#518=DIRECTION('center_axis',(0.,0.,-1.));
#519=DIRECTION('ref_axis',(1.,0.,0.));
#520=DIRECTION('center_axis',(0.,0.,1.));
#521=DIRECTION('ref_axis',(0.707106781186543,0.707106781186552,0.));
#522=DIRECTION('center_axis',(0.,0.,-1.));
#523=DIRECTION('ref_axis',(0.707106781186543,0.707106781186552,0.));
#524=DIRECTION('',(0.,0.,1.));
#525=DIRECTION('center_axis',(-1.,0.,0.));
#526=DIRECTION('ref_axis',(0.,0.707106781186547,0.707106781186547));
#527=DIRECTION('',(1.,0.,0.));
#528=DIRECTION('center_axis',(-1.,0.,0.));
#529=DIRECTION('ref_axis',(0.,0.707106781186547,0.707106781186547));
#530=DIRECTION('',(-1.,0.,0.));
#531=DIRECTION('center_axis',(1.,0.,0.));
#532=DIRECTION('ref_axis',(0.,1.,0.));
#533=DIRECTION('center_axis',(1.,0.,0.));
#534=DIRECTION('ref_axis',(0.,1.,0.));
#535=DIRECTION('',(-1.,0.,0.));
#536=DIRECTION('center_axis',(-1.,0.,0.));
#537=DIRECTION('ref_axis',(0.,1.,0.));
#538=DIRECTION('center_axis',(1.,0.,0.));
#539=DIRECTION('ref_axis',(0.,1.,0.));
#540=DIRECTION('center_axis',(0.,-1.,0.));
#541=DIRECTION('ref_axis',(1.,0.,0.));
#542=DIRECTION('',(0.,0.,1.));
#543=DIRECTION('center_axis',(0.,1.,0.));
#544=DIRECTION('ref_axis',(-1.,0.,0.));
#545=DIRECTION('',(0.,0.,1.));
#546=DIRECTION('',(0.,0.,1.));
#547=DIRECTION('center_axis',(1.,0.,0.));
#548=DIRECTION('ref_axis',(0.,1.,0.));
#549=DIRECTION('',(0.,0.,1.));
#550=DIRECTION('',(0.,-1.,0.));
#551=DIRECTION('center_axis',(0.,0.,1.));
#552=DIRECTION('ref_axis',(1.,0.,0.));
#553=DIRECTION('center_axis',(0.,0.,-1.));
#554=DIRECTION('ref_axis',(1.,0.,0.));
#555=DIRECTION('',(0.,0.,-1.));
#556=DIRECTION('center_axis',(0.,0.,1.));
#557=DIRECTION('ref_axis',(1.,0.,0.));
#558=DIRECTION('center_axis',(0.,0.,-1.));
#559=DIRECTION('ref_axis',(1.,0.,0.));
#560=DIRECTION('',(0.,0.,-1.));
#561=DIRECTION('center_axis',(0.,0.,1.));
#562=DIRECTION('ref_axis',(1.,0.,0.));
#563=DIRECTION('center_axis',(0.,0.,-1.));
#564=DIRECTION('ref_axis',(1.,0.,0.));
#565=DIRECTION('',(0.,0.,-1.));
#566=DIRECTION('center_axis',(0.,0.,1.));
#567=DIRECTION('ref_axis',(1.,0.,0.));
#568=DIRECTION('center_axis',(0.,0.,-1.));
#569=DIRECTION('ref_axis',(1.,0.,0.));
#570=DIRECTION('',(0.,0.,-1.));
#571=DIRECTION('center_axis',(0.,-1.,0.));
#572=DIRECTION('ref_axis',(1.,0.,0.));
#573=DIRECTION('',(1.,0.,0.));
#574=DIRECTION('center_axis',(-1.,0.,0.));
#575=DIRECTION('ref_axis',(0.,-1.,0.));
#576=DIRECTION('',(0.,-1.,0.));
#577=DIRECTION('',(0.,0.,1.));
#578=DIRECTION('center_axis',(0.,1.,0.));
#579=DIRECTION('ref_axis',(-1.,0.,0.));
#580=DIRECTION('',(-1.,0.,0.));
#581=DIRECTION('center_axis',(0.,0.,1.));
#582=DIRECTION('ref_axis',(1.,0.,0.));
#583=CARTESIAN_POINT('',(0.,0.,0.));
#584=CARTESIAN_POINT('Origin',(-297.,113.,0.));
#585=CARTESIAN_POINT('',(-300.,113.,0.));
#586=CARTESIAN_POINT('',(-297.,110.,0.));
#587=CARTESIAN_POINT('Origin',(-297.,113.,0.));
#588=CARTESIAN_POINT('',(-297.,110.,55.));
#589=CARTESIAN_POINT('',(-297.,110.,0.));
#590=CARTESIAN_POINT('',(-300.,113.,55.));
#591=CARTESIAN_POINT('Origin',(-297.,113.,55.));
#592=CARTESIAN_POINT('',(-300.,113.,0.));
#593=CARTESIAN_POINT('Origin',(-297.,135.,55.));
#594=CARTESIAN_POINT('',(-297.,160.,55.));
#595=CARTESIAN_POINT('',(-300.,157.,55.));
#596=CARTESIAN_POINT('Origin',(-297.,157.,55.));
#597=CARTESIAN_POINT('Origin',(-300.,135.,55.));
#598=CARTESIAN_POINT('Origin',(-297.,135.,55.));
#599=CARTESIAN_POINT('Origin',(-297.,157.,0.));
#600=CARTESIAN_POINT('',(-297.,160.,0.));
#601=CARTESIAN_POINT('',(-300.,157.,0.));
#602=CARTESIAN_POINT('Origin',(-297.,157.,0.));
#603=CARTESIAN_POINT('',(-300.,157.,0.));
#604=CARTESIAN_POINT('',(-297.,160.,0.));
#605=CARTESIAN_POINT('Origin',(-300.,160.,0.));
#606=CARTESIAN_POINT('',(-300.,160.,0.));
#607=CARTESIAN_POINT('Origin',(-206.489642849606,113.00004743104,0.));
#608=CARTESIAN_POINT('',(-203.489642849606,113.00004743104,5.));
#609=CARTESIAN_POINT('',(-206.489642849606,110.00004743104,5.));
#610=CARTESIAN_POINT('Origin',(-206.489642849606,113.00004743104,5.));
#611=CARTESIAN_POINT('',(-206.489642849606,110.00004743104,0.));
#612=CARTESIAN_POINT('',(-206.489642849606,110.00004743104,0.));
#613=CARTESIAN_POINT('',(-203.489642849606,113.00004743104,0.));
#614=CARTESIAN_POINT('Origin',(-206.489642849606,113.00004743104,0.));
#615=CARTESIAN_POINT('',(-203.489642849606,113.00004743104,0.));
#616=CARTESIAN_POINT('Origin',(-203.489642849606,110.00004743104,0.));
#617=CARTESIAN_POINT('',(-203.489642849606,157.000034080843,0.));
#618=CARTESIAN_POINT('',(-203.489642849606,160.000034080843,0.));
#619=CARTESIAN_POINT('',(-203.489642849606,157.000034080843,5.));
#620=CARTESIAN_POINT('',(-203.489642849606,157.000034080843,0.));
#621=CARTESIAN_POINT('',(-203.489642849606,160.000034080843,5.));
#622=CARTESIAN_POINT('Origin',(-236.744821424803,135.000040755941,0.));
#623=CARTESIAN_POINT('',(-270.,160.,0.));
#624=CARTESIAN_POINT('',(-270.,160.,0.));
#625=CARTESIAN_POINT('',(-270.,160.000034080843,0.));
#626=CARTESIAN_POINT('',(-270.,110.00004743104,0.));
#627=CARTESIAN_POINT('',(-206.489642849606,160.000034080843,0.));
#628=CARTESIAN_POINT('',(-270.,160.000034080843,0.));
#629=CARTESIAN_POINT('Origin',(-206.489642849606,157.000034080843,0.));
#630=CARTESIAN_POINT('',(-270.,110.00004743104,0.));
#631=CARTESIAN_POINT('',(-203.489642849606,110.00004743104,0.));
#632=CARTESIAN_POINT('',(-270.,110.,0.));
#633=CARTESIAN_POINT('',(-270.,110.,0.));
#634=CARTESIAN_POINT('',(-300.,110.,0.));
#635=CARTESIAN_POINT('',(-225.,120.,0.));
#636=CARTESIAN_POINT('Origin',(-220.,120.,0.));
#637=CARTESIAN_POINT('',(-255.,120.,0.));
#638=CARTESIAN_POINT('Origin',(-250.,120.,0.));
#639=CARTESIAN_POINT('',(-225.,150.,0.));
#640=CARTESIAN_POINT('Origin',(-220.,150.,0.));
#641=CARTESIAN_POINT('',(-255.,150.,0.));
#642=CARTESIAN_POINT('Origin',(-250.,150.,0.));
#643=CARTESIAN_POINT('Origin',(-206.489642849606,157.000034080843,0.));
#644=CARTESIAN_POINT('',(-206.489642849606,160.000034080843,5.));
#645=CARTESIAN_POINT('Origin',(-206.489642849606,157.000034080843,5.));
#646=CARTESIAN_POINT('',(-206.489642849606,160.000034080843,0.));
#647=CARTESIAN_POINT('Origin',(-277.5,135.,55.));
#648=CARTESIAN_POINT('',(-270.,110.,55.));
#649=CARTESIAN_POINT('',(-292.5,110.,55.));
#650=CARTESIAN_POINT('',(-270.,160.,55.));
#651=CARTESIAN_POINT('Origin',(-270.,135.,55.));
#652=CARTESIAN_POINT('',(-277.5,160.,55.));
#653=CARTESIAN_POINT('Origin',(-270.,135.000002011657,61.0000009089708));
#654=CARTESIAN_POINT('',(-170.,120.000002011657,61.0000009089708));
#655=CARTESIAN_POINT('Origin',(-170.,135.000002011657,61.0000009089708));
#656=CARTESIAN_POINT('',(-270.,120.000002011657,61.0000009089708));
#657=CARTESIAN_POINT('',(-270.,120.000002011657,61.0000009089708));
#658=CARTESIAN_POINT('Origin',(-270.,135.000002011657,61.0000009089708));
#659=CARTESIAN_POINT('Origin',(-170.,135.000002011657,61.0000009089708));
#660=CARTESIAN_POINT('Origin',(-300.,110.,0.));
#661=CARTESIAN_POINT('',(-270.,110.,0.));
#662=CARTESIAN_POINT('Origin',(-270.,160.,0.));
#663=CARTESIAN_POINT('',(-270.,160.,5.));
#664=CARTESIAN_POINT('',(-270.,160.,0.));
#665=CARTESIAN_POINT('',(-270.,160.,0.));
#666=CARTESIAN_POINT('Origin',(-270.,110.,0.));
#667=CARTESIAN_POINT('',(-270.,110.00004743104,5.));
#668=CARTESIAN_POINT('',(-270.,110.00004743104,0.));
#669=CARTESIAN_POINT('',(-270.,110.00004743104,5.));
#670=CARTESIAN_POINT('Origin',(-250.,150.,0.));
#671=CARTESIAN_POINT('',(-255.,150.,5.));
#672=CARTESIAN_POINT('Origin',(-250.,150.,5.));
#673=CARTESIAN_POINT('',(-255.,150.,0.));
#674=CARTESIAN_POINT('Origin',(-220.,150.,0.));
#675=CARTESIAN_POINT('',(-225.,150.,5.));
#676=CARTESIAN_POINT('Origin',(-220.,150.,5.));
#677=CARTESIAN_POINT('',(-225.,150.,0.));
#678=CARTESIAN_POINT('Origin',(-250.,120.,0.));
#679=CARTESIAN_POINT('',(-255.,120.,5.));
#680=CARTESIAN_POINT('Origin',(-250.,120.,5.));
#681=CARTESIAN_POINT('',(-255.,120.,0.));
#682=CARTESIAN_POINT('Origin',(-220.,120.,0.));
#683=CARTESIAN_POINT('',(-225.,120.,5.));
#684=CARTESIAN_POINT('Origin',(-220.,120.,5.));
#685=CARTESIAN_POINT('',(-225.,120.,0.));
#686=CARTESIAN_POINT('Origin',(-270.,110.00004743104,0.));
#687=CARTESIAN_POINT('',(-203.489642849606,110.00004743104,5.));
#688=CARTESIAN_POINT('Origin',(-270.,160.000034080843,0.));
#689=CARTESIAN_POINT('',(-270.,160.000034080843,5.));
#690=CARTESIAN_POINT('',(-270.,110.00004743104,5.));
#691=CARTESIAN_POINT('',(-270.,160.000034080843,0.));
#692=CARTESIAN_POINT('Origin',(-203.489642849606,160.000034080843,0.));
#693=CARTESIAN_POINT('',(-270.,160.000034080843,5.));
#694=CARTESIAN_POINT('Origin',(-236.744821424803,135.000040755941,5.));
#695=UNCERTAINTY_MEASURE_WITH_UNIT(LENGTH_MEASURE(0.01),#699,
'DISTANCE_ACCURACY_VALUE',
'Maximum model space distance between geometric entities at asserted c
onnectivities');
#696=UNCERTAINTY_MEASURE_WITH_UNIT(LENGTH_MEASURE(0.01),#699,
'DISTANCE_ACCURACY_VALUE',
'Maximum model space distance between geometric entities at asserted c
onnectivities');
#697=(
GEOMETRIC_REPRESENTATION_CONTEXT(3)
GLOBAL_UNCERTAINTY_ASSIGNED_CONTEXT((#695))
GLOBAL_UNIT_ASSIGNED_CONTEXT((#699,#701,#702))
REPRESENTATION_CONTEXT('','3D')
);
#698=(
GEOMETRIC_REPRESENTATION_CONTEXT(3)
GLOBAL_UNCERTAINTY_ASSIGNED_CONTEXT((#696))
GLOBAL_UNIT_ASSIGNED_CONTEXT((#699,#701,#702))
REPRESENTATION_CONTEXT('','3D')
);
#699=(
LENGTH_UNIT()
NAMED_UNIT(*)
SI_UNIT(.MILLI.,.METRE.)
);
#700=(
LENGTH_UNIT()
NAMED_UNIT(*)
SI_UNIT($,.METRE.)
);
#701=(
NAMED_UNIT(*)
PLANE_ANGLE_UNIT()
SI_UNIT($,.RADIAN.)
);
#702=(
NAMED_UNIT(*)
SI_UNIT($,.STERADIAN.)
SOLID_ANGLE_UNIT()
);
#703=SHAPE_DEFINITION_REPRESENTATION(#704,#705);
#704=PRODUCT_DEFINITION_SHAPE('',$,#707);
#705=SHAPE_REPRESENTATION('',(#418),#697);
#706=PRODUCT_DEFINITION_CONTEXT('part definition',#711,'design');
#707=PRODUCT_DEFINITION('2026-07-24-20-53-34-395','wall mount',#708,#706);
#708=PRODUCT_DEFINITION_FORMATION('',$,#713);
#709=PRODUCT_RELATED_PRODUCT_CATEGORY('wall mount','wall mount',(#713));
#710=APPLICATION_PROTOCOL_DEFINITION('international standard',
'automotive_design',2009,#711);
#711=APPLICATION_CONTEXT(
'Core Data for Automotive Mechanical Design Process');
#712=PRODUCT_CONTEXT('part definition',#711,'mechanical');
#713=PRODUCT('2026-07-24-20-53-34-395','wall mount',$,(#712));
#714=PRESENTATION_STYLE_ASSIGNMENT((#715));
#715=SURFACE_STYLE_USAGE(.BOTH.,#716);
#716=SURFACE_SIDE_STYLE('',(#717));
#717=SURFACE_STYLE_FILL_AREA(#718);
#718=FILL_AREA_STYLE('Steel - Satin',(#719));
#719=FILL_AREA_STYLE_COLOUR('Steel - Satin',#720);
#720=COLOUR_RGB('Steel - Satin',0.627450980392157,0.627450980392157,0.627450980392157);
ENDSEC;
END-ISO-10303-21;
